<svg width="16" height="15" viewBox="0 0 16 15" fill="none" xmlns="http://www.w3.org/2000/svg">
<path d="M11.4351 7.16212H8.94323V4.59455C8.94323 4.52022 8.88421 4.45941 8.81208 4.45941H8.02518C7.95305 4.45941 7.89404 4.52022 7.89404 4.59455V7.16212H5.40221C5.33007 7.16212 5.27106 7.22293 5.27106 7.29725V8.10806C5.27106 8.18239 5.33007 8.2432 5.40221 8.2432H7.89404V10.8108C7.89404 10.8851 7.95305 10.9459 8.02518 10.9459H8.81208C8.88421 10.9459 8.94323 10.8851 8.94323 10.8108V8.2432H11.4351C11.5072 8.2432 11.5662 8.18239 11.5662 8.10806V7.29725C11.5662 7.22293 11.5072 7.16212 11.4351 7.16212Z" fill="#5BCCD4"/>
<path d="M8.22219 0C4.20262 0 0.94342 3.35826 0.94342 7.5C0.94342 11.6417 4.20262 15 8.22219 15C12.2418 15 15.5009 11.6417 15.5009 7.5C15.5009 3.35826 12.2418 0 8.22219 0ZM8.22219 13.7277C4.885 13.7277 2.17821 10.9386 2.17821 7.5C2.17821 4.06139 4.885 1.27232 8.22219 1.27232C11.5594 1.27232 14.2662 4.06139 14.2662 7.5C14.2662 10.9386 11.5594 13.7277 8.22219 13.7277Z" fill="#5BCCD4"/>
</svg>
